<?xml version="1.0" encoding="UTF-8"?><svg id="Calque_1" xmlns="http://www.w3.org/2000/svg" viewBox="0 0 1027.61 1027.61"><defs><style>.cls-1{fill:#0a0829;stroke-width:0px;}</style></defs><path class="cls-1" d="m617.56,428.5l-64.58-70.41-.25.23-68.33-74.54.23-.21-56.4-61.49-.56-.61-.58-.58c-17.62-17.62-38.18-31.27-61.11-40.57-22.13-8.98-45.51-13.53-69.48-13.53s-47.35,4.55-69.48,13.53c-22.93,9.3-43.5,22.95-61.11,40.57-17.62,17.62-31.27,38.18-40.57,61.11-8.98,22.13-13.53,45.51-13.53,69.48s4.55,47.35,13.53,69.48c9.3,22.93,22.95,43.5,40.57,61.11,17.62,17.62,38.18,31.27,61.11,40.57,22.13,8.98,45.51,13.53,69.48,13.53s47.35-4.55,69.48-13.53c22.93-9.3,43.5-22.95,61.11-40.57l.58-.58,37.2-40.55c3.35-3.65,3.35-9.26,0-12.91l-38.95-42.49c-3.78-4.13-10.29-4.13-14.08,0l-39.41,42.97c-42.22,41.63-110.43,41.45-152.42-.54-20.6-20.6-31.87-48.06-31.68-77.23.18-26.24,9.93-51.66,27.41-71.22,21.53-24.1,51.14-36.14,80.75-36.14,27.46,0,54.92,10.36,75.94,31.09l59.07,64.41.02-.02,63.47,69.24h0s66.77,72.79,66.77,72.79l.56.61.58.58c17.62,17.62,38.18,31.27,61.11,40.57,22.13,8.98,45.51,13.53,69.48,13.53s47.35-4.55,69.48-13.53c.04-.02.08-.03.13-.05,6.07-2.47,7.76-10.29,3.33-15.12l-43.08-47c-2.27-2.48-5.68-3.54-8.98-2.9-33.93,6.62-70.45-3.07-96.82-29.07Z"/><path class="cls-1" d="m855.9,439.51l-77.27-85.66c-3.15-3.5-8.55-3.75-12.03-.57l-43.72,40.08c-3.41,3.13-3.69,8.41-.62,11.87l31.77,35.9h0l52.05,56.78h0l23.64,26.61c3.14,3.54,8.58,3.82,12.07.62l43.64-40.01c3.42-3.14,3.69-8.44.59-11.9l-30.13-33.72h0Z"/><path class="cls-1" d="m773.19,278.34c10.4,11.31,18.16,24.64,22.93,38.99,1.43,4.3,3.74,8.24,6.8,11.58l63.1,68.84c2.13,2.33,5.99,1.33,6.75-1.73,3.6-14.5,5.42-29.4,5.42-44.54,0-23.97-4.55-47.35-13.53-69.48-9.3-22.93-22.95-43.5-40.57-61.11-17.62-17.62-38.18-31.27-61.11-40.57-22.13-8.98-45.51-13.53-69.48-13.53s-47.35,4.55-69.48,13.53c-22.93,9.3-43.5,22.95-61.11,40.57l-.58.58-37.66,41.06c-3.21,3.5-3.21,8.87,0,12.36l39.5,43.09c3.62,3.95,9.86,3.95,13.48,0l39.92-43.53c43.31-42.71,113.98-41.42,155.63,3.88Z"/></svg>